<svg version="1.1" xmlns="http://www.w3.org/2000/svg" viewBox="0 0 503.199951171875 234.20409841239774" width="503.199951171875" height="234.20409841239774" class="excalidraw-svg">
  <!-- svg-source:excalidraw -->
  
  <defs>
    <style class="style-fonts">
      @font-face {
        font-family: "Virgil";
        src: url("https://excalidraw.com/Virgil.woff2");
      }
      @font-face {
        font-family: "Cascadia";
        src: url("https://excalidraw.com/Cascadia.woff2");
      }
      @font-face {
        font-family: "Assistant";
        src: url("https://excalidraw.com/Assistant-Regular.woff2");
      }
    </style>
    
  </defs>
  <rect x="0" y="0" width="503.199951171875" height="234.20409841239774" fill="#ffffff"/><g stroke-linecap="round" transform="translate(10 30.604092308882116) rotate(0 88 54)"><path d="M27 0 C67.99 0.32, 111.49 -0.21, 149 0 M27 0 C67.33 0.28, 105.34 0.74, 149 0 M149 0 C167.5 1.54, 175.31 9.17, 176 27 M149 0 C167.28 -0.19, 177.6 8, 176 27 M176 27 C174.62 47.72, 174.57 66.77, 176 81 M176 27 C176.44 38.68, 177.24 51.21, 176 81 M176 81 C174.35 99.21, 165.32 107.67, 149 108 M176 81 C175.3 96.84, 167.54 109.39, 149 108 M149 108 C120.07 108.22, 88.43 108.35, 27 108 M149 108 C113.18 107.56, 76.75 107.24, 27 108 M27 108 C10.55 107.45, -0.57 100.76, 0 81 M27 108 C9.08 107.57, 1.31 97.59, 0 81 M0 81 C1.36 69.64, 0.53 56.74, 0 27 M0 81 C0.57 61.31, 0.34 40, 0 27 M0 27 C1.93 8.4, 9.62 -0.48, 27 0 M0 27 C1.99 9.05, 10.86 2.13, 27 0" stroke="#1e1e1e" stroke-width="2" fill="none"/></g><g stroke-linecap="round"><g transform="translate(87.5999755859375 29.1148080747069) rotate(0 159.05403502631063 19.840288517282914)"><path d="M0.13 0.83 C29.57 -1.79, 124.56 -24.03, 177.55 -14.96 C230.53 -5.89, 294.68 43.63, 318.03 55.25 M-1.26 0.22 C27.94 -2.84, 123.49 -26.32, 176.57 -16.9 C229.65 -7.49, 293.71 44.59, 317.23 56.71" stroke="#1e1e1e" stroke-width="2" fill="none"/></g><g transform="translate(87.5999755859375 29.1148080747069) rotate(0 159.05403502631063 19.840288517282914)"><path d="M292.81 51.36 C303.33 53.23, 311.64 55.19, 317.23 56.71 M292.81 51.36 C299.96 53.89, 308.23 54.55, 317.23 56.71" stroke="#1e1e1e" stroke-width="2" fill="none"/></g><g transform="translate(87.5999755859375 29.1148080747069) rotate(0 159.05403502631063 19.840288517282914)"><path d="M301.96 36.91 C309.15 44.19, 314.05 51.53, 317.23 56.71 M301.96 36.91 C306.11 44.08, 311.44 49.39, 317.23 56.71" stroke="#1e1e1e" stroke-width="2" fill="none"/></g></g><mask/><g stroke-linecap="round" transform="translate(340.4000244140625 73.80410451591337) rotate(0 76.39996337890625 75.19999694824219)"><path d="M96.25 19 C107.08 28.63, 115.14 41.12, 133.55 57 M96.25 19 C103.6 27.7, 112.22 34.54, 133.55 57 M133.55 57 C151.11 75.1, 152.78 75.7, 133.55 95 M133.55 57 C153.85 74.37, 154.98 74.7, 133.55 95 M133.55 95 C118.75 108.47, 106.74 122.89, 96.25 131.4 M133.55 95 C119.74 107.62, 106.9 120.24, 96.25 131.4 M96.25 131.4 C76.65 148.47, 77.43 151.69, 57.75 131.4 M96.25 131.4 C76.05 151.95, 77.78 149.27, 57.75 131.4 M57.75 131.4 C47.5 122.93, 40.27 112.47, 19.25 95 M57.75 131.4 C44.78 119.03, 32.01 106.44, 19.25 95 M19.25 95 C-0.71 74.34, 0.11 75.2, 19.25 57 M19.25 95 C-0.94 77.26, -1.86 74.13, 19.25 57 M19.25 57 C34.28 41.89, 49.57 29.06, 57.75 19 M19.25 57 C32.88 44.47, 45.85 30.95, 57.75 19 M57.75 19 C75.31 0.42, 75.06 -1.59, 96.25 19 M57.75 19 C76.56 0.67, 78.16 0.88, 96.25 19" stroke="#1e1e1e" stroke-width="2" fill="none"/></g></svg>